<svg width="20" height="20" viewBox="0 0 20 20" fill="none" xmlns="http://www.w3.org/2000/svg">
<path d="M10 2C10.25 2 10.5312 2.0625 10.75 2.1875L17.3125 4.96875C17.7188 5.15625 18 5.5625 18 6C18 6.46875 17.7188 6.875 17.3125 7.0625L10.75 9.84375C10.5312 9.96875 10.25 10 10 10C9.71875 10 9.46875 9.96875 9.21875 9.84375L2.65625 7.0625C2.25 6.875 2 6.46875 2 6C2 5.5625 2.25 5.15625 2.65625 4.96875L9.21875 2.1875C9.46875 2.0625 9.71875 2 10 2ZM9.8125 3.5625L4.0625 6L9.8125 8.46875C9.875 8.5 9.9375 8.5 10 8.5C10.0625 8.5 10.125 8.5 10.1562 8.46875L15.9062 6L10.1562 3.5625C10.125 3.53125 10.0625 3.5 10 3.5C9.9375 3.5 9.875 3.53125 9.8125 3.5625ZM2.65625 8.96875L3.65625 8.5625L5.5625 9.375L4.0625 10L9.8125 12.4688C9.875 12.5 9.9375 12.5 10 12.5C10.0625 12.5 10.125 12.5 10.1562 12.4688L15.9062 10L14.4375 9.375L16.3125 8.5625L17.3125 8.96875C17.7188 9.15625 18 9.5625 18 10C18 10.4688 17.7188 10.875 17.3125 11.0625L10.75 13.8438C10.5312 13.9688 10.25 14 10 14C9.71875 14 9.46875 13.9688 9.21875 13.8438L2.65625 11.0625C2.25 10.875 2 10.4688 2 10C2 9.5625 2.25 9.15625 2.65625 8.96875ZM2.65625 12.9688L3.65625 12.5625L5.5625 13.375L4.0625 14L9.8125 16.4688C9.875 16.5 9.9375 16.5 10 16.5C10.0625 16.5 10.125 16.5 10.1562 16.4688L15.9062 14L14.4375 13.375L16.3125 12.5625L17.3125 12.9688C17.7188 13.1562 18 13.5625 18 14C18 14.4688 17.7188 14.875 17.3125 15.0625L10.75 17.8438C10.5312 17.9688 10.25 18 10 18C9.71875 18 9.46875 17.9688 9.21875 17.8438L2.65625 15.0625C2.25 14.875 2 14.4688 2 14C2 13.5625 2.25 13.1562 2.65625 12.9688Z" fill="#0082C6"/>
</svg>
