<svg width="32" height="32" viewBox="0 0 32 32" fill="none" xmlns="http://www.w3.org/2000/svg">
<path d="M26.1818 0H5.81818C2.60489 0 0 2.60489 0 5.81818V26.1818C0 29.3951 2.60489 32 5.81818 32H26.1818C29.3951 32 32 29.3951 32 26.1818V5.81818C32 2.60489 29.3951 0 26.1818 0Z" fill="#747884"/>
<path fill-rule="evenodd" clip-rule="evenodd" d="M9.44633 17.2087C10.1916 17.2087 10.9248 17.4274 11.5446 17.8446C12.1684 18.2578 12.6504 18.8492 12.938 19.5378C13.2256 20.2264 13.2985 20.9879 13.1527 21.7211C13.0068 22.4542 12.6463 23.1267 12.1198 23.6573C11.5932 24.1839 10.9167 24.5444 10.1835 24.6902C9.45038 24.836 8.69291 24.7591 8.00026 24.4755C7.31165 24.1879 6.72026 23.7059 6.30709 23.0821C5.89393 22.4583 5.67114 21.7292 5.67114 20.9839C5.67114 19.9834 6.0681 19.0234 6.77697 18.3186C7.48583 17.6097 8.44178 17.2127 9.44228 17.2127L9.44633 17.2087Z" fill="white"/>
<path d="M21.72 13.8791C21.4688 13.8791 21.2137 13.8548 20.9625 13.8062C20.2091 13.6563 19.5245 13.2918 18.9818 12.749C18.439 12.2062 18.0744 11.5217 17.9245 10.7682C17.7747 10.0148 17.8516 9.24115 18.1473 8.53229C18.443 7.82342 18.9372 7.22393 19.5731 6.79861C20.2091 6.3733 20.9504 6.15051 21.7159 6.15051H21.72C22.7488 6.15051 23.721 6.55558 24.4501 7.28469C25.1792 8.0138 25.5802 8.98191 25.5843 10.0148C25.5843 10.7844 25.3615 11.5257 24.9362 12.1657C24.5109 12.8057 23.9114 13.2958 23.2025 13.5915C22.7286 13.786 22.2263 13.8872 21.724 13.8872L21.72 13.8791ZM21.7159 7.76266C21.2704 7.76266 20.841 7.89228 20.4683 8.13937C20.0957 8.38646 19.8121 8.73482 19.638 9.14798C19.4678 9.56115 19.4233 10.0108 19.5083 10.4482C19.5934 10.8857 19.8081 11.2827 20.124 11.5986C20.44 11.9146 20.8369 12.1252 21.2744 12.2143C21.7119 12.2994 22.1615 12.2548 22.5747 12.0847C22.9878 11.9146 23.3362 11.627 23.5833 11.2543C23.8304 10.8817 23.96 10.4523 23.96 10.0067C23.96 9.40722 23.725 8.84418 23.3038 8.42292C22.8785 7.9976 22.3154 7.76672 21.7159 7.76672V7.76266Z" fill="white"/>
<path d="M12.5007 8.80766C12.0187 8.80766 11.565 8.52007 11.3747 8.04614C11.1235 7.42235 11.4233 6.71754 12.0471 6.4664C14.5787 5.44564 17.3736 5.40513 19.7149 6.35703C20.3387 6.60817 20.6344 7.31703 20.3833 7.94083C20.1321 8.56057 19.4192 8.86032 18.7995 8.60918C17.0374 7.89222 14.9068 7.93273 12.9544 8.71855C12.8045 8.77931 12.6506 8.80766 12.5007 8.80766Z" fill="white"/>
<path d="M15.9843 25.8972C13.3271 25.8972 10.7104 24.7913 8.72961 22.7053C5.77265 19.5903 5.07594 15.167 6.95138 11.4324C7.25113 10.8329 7.98429 10.5898 8.58379 10.8936C9.18328 11.1934 9.42632 11.9265 9.12252 12.526C7.4091 15.9326 8.7053 19.1529 10.4916 21.0324C12.278 22.9119 15.4213 24.3741 18.9048 22.847C19.5205 22.5797 20.2375 22.8551 20.5048 23.4708C20.7762 24.0865 20.4967 24.8035 19.881 25.0708C18.6172 25.6258 17.2967 25.8931 15.9843 25.8931V25.8972Z" fill="white"/>
<path d="M23.822 20.7651C23.6519 20.7651 23.4777 20.7287 23.3157 20.6517C22.7081 20.3722 22.4407 19.6471 22.7202 19.0395C23.664 16.9899 23.7856 14.7499 23.0483 12.8907C22.8013 12.2669 23.105 11.5621 23.7288 11.315C24.3526 11.0679 25.0575 11.3717 25.3045 11.9955C26.2848 14.4704 26.1471 17.4112 24.9238 20.0563C24.7172 20.5018 24.2797 20.7611 23.818 20.7611L23.822 20.7651Z" fill="white"/>
</svg>
