<svg width="25" height="24" viewBox="0 0 25 24" fill="none" xmlns="http://www.w3.org/2000/svg">
<path d="M12.5 20.125C12.7734 20.125 13.5547 19.8516 14.3359 18.25C14.6875 17.5469 15 16.7266 15.1953 15.75H9.76562C10 16.7266 10.2734 17.5469 10.625 18.25C11.4453 19.8516 12.1875 20.125 12.5 20.125ZM9.45312 13.875H15.5078C15.5859 13.2891 15.625 12.6641 15.625 12C15.625 11.375 15.5859 10.75 15.5078 10.125H9.45312C9.375 10.75 9.375 11.375 9.375 12C9.375 12.6641 9.375 13.2891 9.45312 13.875ZM9.76562 8.25H15.1953C15 7.3125 14.6875 6.49219 14.3359 5.78906C13.5547 4.1875 12.7734 3.875 12.5 3.875C12.1875 3.875 11.4453 4.1875 10.625 5.78906C10.2734 6.49219 10 7.3125 9.76562 8.25ZM17.3828 10.125C17.4609 10.75 17.4609 11.375 17.4609 12C17.4609 12.6641 17.4609 13.2891 17.3828 13.875H20.3906C20.5469 13.2891 20.625 12.6641 20.625 12C20.625 11.375 20.5469 10.75 20.3906 10.125H17.3828ZM19.6875 8.25C18.8672 6.64844 17.5 5.35938 15.8594 4.61719C16.4062 5.63281 16.8359 6.88281 17.1094 8.25H19.6875ZM7.85156 8.25C8.125 6.88281 8.55469 5.63281 9.10156 4.61719C7.46094 5.35938 6.09375 6.64844 5.27344 8.25H7.85156ZM4.57031 10.125C4.45312 10.75 4.375 11.375 4.375 12C4.375 12.6641 4.41406 13.2891 4.57031 13.875H7.57812C7.5 13.2891 7.5 12.6641 7.5 12C7.5 11.375 7.5 10.75 7.57812 10.125H4.57031ZM15.8594 19.4219C17.5 18.6797 18.8672 17.3906 19.6875 15.75H17.1094C16.8359 17.1562 16.4062 18.4062 15.8594 19.4219ZM9.10156 19.4219C8.55469 18.4062 8.125 17.1562 7.85156 15.75H5.27344C6.09375 17.3906 7.46094 18.6797 9.10156 19.4219ZM12.5 22C8.90625 22 5.625 20.125 3.82812 17C2.03125 13.9141 2.03125 10.125 3.82812 7C5.625 3.91406 8.90625 2 12.5 2C16.0547 2 19.3359 3.91406 21.1328 7C22.9297 10.125 22.9297 13.9141 21.1328 17C19.3359 20.125 16.0547 22 12.5 22Z" fill="#9297A0"/>
</svg>
