<svg width="80" height="80" viewBox="0 0 80 80" fill="none" xmlns="http://www.w3.org/2000/svg">
<path d="M59.9998 26.5306C59.9998 30.1374 57.0759 33.0613 53.4692 33.0613C49.8624 33.0613 46.9386 30.1374 46.9386 26.5306C46.9386 22.9239 49.8624 20 53.4692 20C57.0759 20 59.9998 22.9239 59.9998 26.5306Z" fill="url(#paint0_linear_2237_223)"/>
<path fill-rule="evenodd" clip-rule="evenodd" d="M40.3974 39.4533C36.0748 35.1772 30.219 33.3473 24.5695 33.9707C22.3119 34.2198 20.2776 32.6113 20.0257 30.3779C19.7739 28.1446 21.3999 26.1321 23.6575 25.883C31.685 24.9972 40.0491 27.6001 46.2143 33.699C52.4918 39.909 55.1051 48.3734 54.0629 56.4461C53.7751 58.6752 51.7151 60.2515 49.4618 59.9668C47.2084 59.6821 45.615 57.6443 45.9028 55.4152C46.6364 49.7334 44.7983 43.8068 40.3974 39.4533Z" fill="url(#paint1_linear_2237_223)"/>
<defs>
<linearGradient id="paint0_linear_2237_223" x1="20" y1="20" x2="60" y2="59.9998" gradientUnits="userSpaceOnUse">
<stop stop-color="#0073CF"/>
<stop offset="1" stop-color="#003399"/>
</linearGradient>
<linearGradient id="paint1_linear_2237_223" x1="20" y1="20" x2="60" y2="59.9998" gradientUnits="userSpaceOnUse">
<stop stop-color="#0073CF"/>
<stop offset="1" stop-color="#003399"/>
</linearGradient>
</defs>
</svg>
