<svg width="50" height="50" viewBox="0 0 50 50" fill="none" xmlns="http://www.w3.org/2000/svg">
<path d="M25 8.75C19.1406 8.75 13.8281 11.875 10.8594 16.875C7.96875 21.9531 7.96875 28.125 10.8594 33.125C13.8281 38.2031 19.1406 41.25 25 41.25C30.7812 41.25 36.0938 38.2031 39.0625 33.125C41.9531 28.125 41.9531 21.9531 39.0625 16.875C36.0938 11.875 30.7812 8.75 25 8.75ZM25 45C17.8125 45 11.25 41.25 7.65625 35C4.0625 28.8281 4.0625 21.25 7.65625 15C11.25 8.82812 17.8125 5 25 5C32.1094 5 38.6719 8.82812 42.2656 15C45.8594 21.25 45.8594 28.8281 42.2656 35C38.6719 41.25 32.1094 45 25 45ZM27.5 13.75C27.5 15.1562 26.3281 16.25 25 16.25C23.5938 16.25 22.5 15.1562 22.5 13.75C22.5 12.4219 23.5938 11.25 25 11.25C26.3281 11.25 27.5 12.4219 27.5 13.75ZM25 36.875C22.5781 36.875 20.625 34.9219 20.625 32.5C20.625 30.1562 22.5 28.2031 24.8438 28.125L30.1562 16.1719C30.5469 15.2344 31.6406 14.7656 32.5781 15.2344C33.5156 15.625 33.9844 16.7188 33.5938 17.6562L28.2812 29.6875C28.9062 30.4688 29.375 31.4062 29.375 32.5C29.375 34.9219 27.3438 36.875 25 36.875ZM20 17.5C20 18.9062 18.8281 20 17.5 20C16.0938 20 15 18.9062 15 17.5C15 16.1719 16.0938 15 17.5 15C18.8281 15 20 16.1719 20 17.5ZM13.75 27.5C12.3438 27.5 11.25 26.4062 11.25 25C11.25 23.6719 12.3438 22.5 13.75 22.5C15.0781 22.5 16.25 23.6719 16.25 25C16.25 26.4062 15.0781 27.5 13.75 27.5ZM38.75 25C38.75 26.4062 37.5781 27.5 36.25 27.5C34.8438 27.5 33.75 26.4062 33.75 25C33.75 23.6719 34.8438 22.5 36.25 22.5C37.5781 22.5 38.75 23.6719 38.75 25Z" fill="#9297A0"/>
</svg>
