<svg width="24" height="24" viewBox="0 0 24 24" fill="none" xmlns="http://www.w3.org/2000/svg">
<path fill-rule="evenodd" clip-rule="evenodd" d="M18.421 10.8758V13.9807C18.4215 14.1247 18.4536 14.2669 18.5151 14.3971C18.5766 14.5273 18.6659 14.6423 18.7768 14.734L20.816 16.439L20.9076 16.5079V17.9878H3.09511V16.5079L3.1868 16.439L5.22597 14.7349C5.33745 14.6434 5.42738 14.5283 5.48935 14.3979C5.55132 14.2676 5.5838 14.1251 5.58448 13.9807V9.05224C5.58448 6.60573 7.43958 4.71561 10.1939 4.14114C10.2604 3.38302 10.4582 2.66264 10.7645 2.00299C8.93111 2.18868 7.18636 2.91764 5.75869 4.10724C5.04742 4.7195 4.47615 5.47811 4.08377 6.33142C3.69138 7.18473 3.48709 8.11272 3.48479 9.05224V13.5306L1.83438 14.9085C1.57907 15.0901 1.37034 15.3297 1.22531 15.6077C1.08028 15.8857 1.00306 16.1942 1 16.5079V17.9878C1.01346 18.5315 1.24155 19.0478 1.63428 19.4234C2.02701 19.7989 2.55233 20.0032 3.09511 19.9913H5.76786C5.86821 20.6109 6.11207 21.1983 6.47989 21.7064C6.84771 22.2145 7.32925 22.6292 7.88589 22.9172C9.14883 23.6111 10.5625 23.984 12.0028 24.003C13.446 23.9836 14.8626 23.6105 16.1288 22.9162C16.685 22.6283 17.1662 22.2139 17.5339 21.7061C17.9015 21.1984 18.1454 20.6114 18.2459 19.9922H20.9049C21.4478 20.0041 21.9733 19.7997 22.366 19.4239C22.7588 19.0482 22.9868 18.5317 23 17.9878V16.5079L22.9936 16.3453C22.9683 16.0752 22.8882 15.8131 22.7583 15.575C22.6284 15.337 22.4514 15.128 22.2381 14.9609L22.1803 14.9195L20.5161 13.5278V9.79693C19.8978 10.2771 19.1896 10.6467 18.421 10.8758ZM7.92807 20.0584C8.08367 20.4795 8.37377 20.8373 8.75327 21.0762L8.90273 21.1626C9.85283 21.6895 10.917 21.9758 12.0028 21.9967C13.0923 21.9764 14.1603 21.6894 15.1138 21.1607C15.5641 20.9285 15.9107 20.5349 16.0848 20.0584L16.1049 19.9959H7.90789L7.92807 20.0584Z" fill="#747884"/>
<path d="M17.0043 8C19.214 8 21.0053 6.20914 21.0053 4C21.0053 1.79086 19.214 0 17.0043 0C14.7946 0 13.0033 1.79086 13.0033 4C13.0033 6.20914 14.7946 8 17.0043 8Z" fill="#FF9600"/>
</svg>
