<svg width="30" height="30" viewBox="0 0 30 30" fill="none" xmlns="http://www.w3.org/2000/svg">
<path d="M15 3C15.375 3 15.7969 3.09375 16.125 3.28125L25.9688 7.45312C26.5781 7.73438 27 8.34375 27 9C27 9.70312 26.5781 10.3125 25.9688 10.5938L16.125 14.7656C15.7969 14.9531 15.375 15 15 15C14.5781 15 14.2031 14.9531 13.8281 14.7656L3.98438 10.5938C3.375 10.3125 3 9.70312 3 9C3 8.34375 3.375 7.73438 3.98438 7.45312L13.8281 3.28125C14.2031 3.09375 14.5781 3 15 3ZM14.7188 5.34375L6.09375 9L14.7188 12.7031C14.8125 12.75 14.9062 12.75 15 12.75C15.0938 12.75 15.1875 12.75 15.2344 12.7031L23.8594 9L15.2344 5.34375C15.1875 5.29688 15.0938 5.25 15 5.25C14.9062 5.25 14.8125 5.29688 14.7188 5.34375ZM3.98438 13.4531L5.48438 12.8438L8.34375 14.0625L6.09375 15L14.7188 18.7031C14.8125 18.75 14.9062 18.75 15 18.75C15.0938 18.75 15.1875 18.75 15.2344 18.7031L23.8594 15L21.6562 14.0625L24.4688 12.8438L25.9688 13.4531C26.5781 13.7344 27 14.3438 27 15C27 15.7031 26.5781 16.3125 25.9688 16.5938L16.125 20.7656C15.7969 20.9531 15.375 21 15 21C14.5781 21 14.2031 20.9531 13.8281 20.7656L3.98438 16.5938C3.375 16.3125 3 15.7031 3 15C3 14.3438 3.375 13.7344 3.98438 13.4531ZM3.98438 19.4531L5.48438 18.8438L8.34375 20.0625L6.09375 21L14.7188 24.7031C14.8125 24.75 14.9062 24.75 15 24.75C15.0938 24.75 15.1875 24.75 15.2344 24.7031L23.8594 21L21.6562 20.0625L24.4688 18.8438L25.9688 19.4531C26.5781 19.7344 27 20.3438 27 21C27 21.7031 26.5781 22.3125 25.9688 22.5938L16.125 26.7656C15.7969 26.9531 15.375 27 15 27C14.5781 27 14.2031 26.9531 13.8281 26.7656L3.98438 22.5938C3.375 22.3125 3 21.7031 3 21C3 20.3438 3.375 19.7344 3.98438 19.4531Z" fill="#747884"/>
</svg>
