<svg width="32" height="30" viewBox="0 0 32 30" fill="none" xmlns="http://www.w3.org/2000/svg">
<path d="M5.125 17.5312C5.07812 17.625 5.03125 17.7188 4.9375 17.7656C4.84375 18 4.70312 18.1875 4.60938 18.4219C5.40625 18.2344 6.15625 17.9062 6.90625 17.5781C7.14062 17.4844 7.32812 17.3906 7.51562 17.2969C7.98438 17.0625 8.45312 17.0156 8.96875 17.1094C9.53125 17.2031 10.0938 17.25 10.75 17.25C15.25 17.25 18.25 14.25 18.25 11.25C18.25 8.29688 15.25 5.25 10.75 5.25C6.20312 5.25 3.25 8.29688 3.25 11.25C3.25 12.5625 3.76562 13.8281 4.75 14.9062C5.45312 15.6094 5.59375 16.6406 5.125 17.5312ZM10.75 19.5C9.95312 19.5 9.25 19.4531 8.5 19.3125C8.3125 19.4062 8.07812 19.5469 7.84375 19.6406C6.15625 20.3906 4.14062 21 2.125 21C1.65625 21 1.23438 20.7656 1.04688 20.3438C0.90625 19.9219 0.953125 19.4531 1.28125 19.125C1.9375 18.375 2.5 17.5312 3.01562 16.6875C3.0625 16.5938 3.10938 16.5 3.10938 16.4531C1.79688 15.0469 1 13.2188 1 11.25C1 6.70312 5.35938 3 10.75 3C16.0938 3 20.5 6.70312 20.5 11.25C20.5 15.8438 16.0938 19.5 10.75 19.5ZM21.25 25.5C17.4062 25.5 14.0781 23.625 12.4844 20.9062C13.2812 20.7656 14.0781 20.5781 14.8281 20.3438C16.0469 22.0312 18.3438 23.25 21.2031 23.25C21.8125 23.25 22.4219 23.2031 22.9844 23.1094C23.5 23.0156 23.9688 23.0625 24.4375 23.2969C24.625 23.3906 24.8125 23.4844 25.0469 23.5781C25.7969 23.9062 26.5469 24.1875 27.3438 24.4219C27.25 24.1875 27.1094 24 27.0156 23.7656C26.9688 23.6719 26.875 23.5781 26.8281 23.4844C26.4062 22.6406 26.5469 21.6094 27.2031 20.9062C28.1875 19.8281 28.75 18.5625 28.75 17.25C28.75 14.4844 26.0781 11.625 22 11.2969V11.25C22 10.5 21.8594 9.75 21.6719 9.04688C26.875 9.23438 31 12.8438 31 17.25C31 19.2188 30.1562 21.0469 28.8438 22.4531C28.8438 22.5469 28.8906 22.5938 28.9375 22.6875C29.4531 23.5312 30.0156 24.375 30.6719 25.125C31 25.4531 31.0469 25.9219 30.9062 26.3438C30.7188 26.7656 30.2969 27 29.875 27C27.8594 27 25.7969 26.3906 24.1094 25.6406C23.875 25.5469 23.6406 25.4062 23.4531 25.3125C22.7031 25.4531 22 25.5 21.25 25.5ZM9.625 7.07812H11.5469C12.6719 7.07812 13.6094 7.96875 13.6094 9.14062C13.6094 9.84375 13.2344 10.5469 12.5781 10.875L11.5 11.5312C11.5 11.9531 11.125 12.2812 10.75 12.2812C10.3281 12.2812 10 11.9531 10 11.5312V11.1094C10 10.8281 10.1406 10.5938 10.375 10.4531L11.8281 9.60938C12.0156 9.51562 12.1094 9.32812 12.1094 9.09375C12.1094 8.8125 11.875 8.57812 11.5469 8.57812H9.625C9.48438 8.57812 9.34375 8.625 9.34375 8.76562L9.29688 8.8125C9.15625 9.1875 8.73438 9.42188 8.35938 9.28125C7.98438 9.14062 7.75 8.71875 7.89062 8.29688V8.25C8.17188 7.54688 8.82812 7.07812 9.625 7.07812ZM10.75 15.5156C10.3281 15.5625 9.95312 15.375 9.76562 15C9.53125 14.6719 9.53125 14.25 9.76562 13.9219C9.95312 13.5938 10.3281 13.3594 10.75 13.4062C11.125 13.3594 11.5 13.5938 11.6875 13.9219C11.9219 14.25 11.9219 14.6719 11.6875 15C11.5 15.375 11.125 15.5625 10.75 15.5156ZM26.2656 16.5469L22.2812 20.5312C21.9531 20.8594 21.4844 20.8594 21.2031 20.5312L19.1875 18.5625C18.9062 18.2812 18.9062 17.7656 19.1875 17.4844C19.4688 17.2031 19.9844 17.2031 20.2656 17.4844L21.7188 18.9844L25.1875 15.5156C25.4688 15.1875 25.9844 15.1875 26.2656 15.5156C26.5469 15.7969 26.5469 16.2656 26.2656 16.5469Z" fill="#747884"/>
</svg>
