<svg width="30" height="30" viewBox="0 0 30 30" fill="none" xmlns="http://www.w3.org/2000/svg">
<path d="M6.75 10.5C5.39062 10.5 4.17188 9.79688 3.46875 8.625C2.8125 7.5 2.8125 6.04688 3.46875 4.875C4.17188 3.75 5.39062 3 6.75 3C8.0625 3 9.28125 3.75 9.98438 4.875C10.6406 6.04688 10.6406 7.5 9.98438 8.625C9.28125 9.79688 8.0625 10.5 6.75 10.5ZM24 10.5C22.6406 10.5 21.4219 9.79688 20.7188 8.625C20.0625 7.5 20.0625 6.04688 20.7188 4.875C21.4219 3.75 22.6406 3 24 3C25.3125 3 26.5312 3.75 27.2344 4.875C27.8906 6.04688 27.8906 7.5 27.2344 8.625C26.5312 9.79688 25.3125 10.5 24 10.5ZM0 17.0156C0 14.25 2.20312 12 4.96875 12H6.98438C7.73438 12 8.4375 12.1875 9.04688 12.4688C9 12.7969 9 13.1719 9 13.5C9 15.3281 9.75 16.9219 11.0156 18H10.9688H0.984375C0.421875 18 0 17.5781 0 17.0156ZM18.9844 18H18.9375C20.2031 16.9219 20.9531 15.3281 20.9531 13.5C20.9531 13.1719 20.9531 12.7969 20.9062 12.4688C21.5156 12.1875 22.2188 12 22.9688 12H24.9844C27.75 12 30 14.25 29.9531 17.0156C29.9531 17.5781 29.5312 18 28.9688 18H18.9844ZM15 11.25C14.1562 11.25 13.4531 11.7188 13.0312 12.375C12.6094 13.0781 12.6094 13.9688 13.0312 14.625C13.4531 15.3281 14.1562 15.75 15 15.75C15.7969 15.75 16.5 15.3281 16.9219 14.625C17.3438 13.9688 17.3438 13.0781 16.9219 12.375C16.5 11.7188 15.7969 11.25 15 11.25ZM15 18C13.3594 18 11.9062 17.1562 11.0625 15.75C10.2656 14.3906 10.2656 12.6562 11.0625 11.25C11.9062 9.89062 13.3594 9 15 9C16.5938 9 18.0469 9.89062 18.8906 11.25C19.6875 12.6562 19.6875 14.3906 18.8906 15.75C18.0469 17.1562 16.5938 18 15 18ZM12.2344 21.75C10.3594 21.75 8.8125 23.0625 8.34375 24.75H21.6094C21.1406 23.0625 19.5938 21.75 17.7188 21.75H12.2344ZM12.2344 19.5H17.7188C21.1875 19.5 24 22.3125 24 25.7812C24 26.4844 23.4375 27 22.7344 27H7.21875C6.51562 27 6 26.4375 6 25.7812C6 22.3125 8.76562 19.5 12.2344 19.5Z" fill="#747884"/>
</svg>
