<svg width="30" height="30" viewBox="0 0 30 30" fill="none" xmlns="http://www.w3.org/2000/svg">
<path d="M9 5.25C8.57812 5.25 8.25 5.625 8.25 6V24C8.25 24.4219 8.57812 24.75 9 24.75H21C21.375 24.75 21.75 24.4219 21.75 24V6C21.75 5.625 21.375 5.25 21 5.25H9ZM6 6C6 4.35938 7.3125 3 9 3H21C22.6406 3 24 4.35938 24 6V24C24 25.6875 22.6406 27 21 27H9C7.3125 27 6 25.6875 6 24V6ZM11.625 9H18.375C18.9844 9 19.5 9.51562 19.5 10.125C19.5 10.7812 18.9844 11.25 18.375 11.25H11.625C10.9688 11.25 10.5 10.7812 10.5 10.125C10.5 9.51562 10.9688 9 11.625 9ZM11.625 13.5H18.375C18.9844 13.5 19.5 14.0156 19.5 14.625C19.5 15.2812 18.9844 15.75 18.375 15.75H11.625C10.9688 15.75 10.5 15.2812 10.5 14.625C10.5 14.0156 10.9688 13.5 11.625 13.5ZM11.625 18H13.875C14.4844 18 15 18.5156 15 19.125C15 19.7812 14.4844 20.25 13.875 20.25H11.625C10.9688 20.25 10.5 19.7812 10.5 19.125C10.5 18.5156 10.9688 18 11.625 18Z" fill="#747884"/>
</svg>
