<svg width="122" height="40" viewBox="0 0 122 40" fill="none" xmlns="http://www.w3.org/2000/svg">
<path d="M53.2299 12.5394V7.88065C53.2299 4.9612 54.8814 3.64777 57.0792 3.64777H57.1832V5.89425H57.0922C56.0681 5.89425 55.5609 6.4957 55.5609 7.88065V12.5394H53.2234H53.2299Z" fill="#31445A"/>
<path d="M46.7603 3.5469C49.062 3.5469 50.7201 4.91234 50.7201 7.88382V12.5426H48.3826V7.88382C48.3826 6.4696 47.9144 5.79338 46.7668 5.79338C45.6191 5.79338 45.151 6.46635 45.151 7.88382V12.5426H42.8135V0.149536H45.151V3.99229C45.6387 3.67694 46.1751 3.55015 46.7668 3.55015H46.7603V3.5469Z" fill="#31445A"/>
<path d="M40.4661 5.93313H38.8503V8.35518C38.8503 9.76939 39.3184 10.3416 40.4661 10.3416V12.5881C38.1643 12.5881 36.5063 11.3299 36.5063 8.35518V5.93313H35.1733V3.68664H36.5063V0.165741H38.8438V3.68664H40.4596V5.93313H40.4661Z" fill="#31445A"/>
<path d="M32.0589 2.7439C31.2688 2.7439 30.6609 2.14245 30.6609 1.36545C30.6609 0.588442 31.2721 0 32.0589 0C32.8456 0 33.4471 0.601446 33.4471 1.36545C33.4471 2.12945 32.8359 2.7439 32.0589 2.7439ZM30.8917 12.5394V3.68671H33.2292V12.5394H30.8917Z" fill="#31445A"/>
<path d="M28.1412 12.5393H25.8037V7.88056C25.8037 6.46635 25.3355 5.79013 24.1879 5.79013C23.0403 5.79013 22.5721 6.4631 22.5721 7.88056V12.5393H20.2346V7.88056C20.2346 4.90584 21.8862 3.54364 24.1944 3.54364C26.5027 3.54364 28.1542 4.90909 28.1542 7.88056V12.5393H28.1412Z" fill="#31445A"/>
<path d="M8.70972 8.13097C8.70972 5.67316 10.6896 3.54697 13.2807 3.54697C15.5142 3.54697 17.8842 5.10748 17.9753 7.91965C17.9948 8.32603 17.9557 8.71616 17.9005 9.0185H11.226C11.4406 9.90604 12.2306 10.4327 13.2742 10.4327C14.1195 10.4327 14.5324 10.1466 14.8217 9.9158L17.6111 9.93531C16.8894 11.5446 15.2541 12.6792 13.349 12.6792C10.7579 12.6792 8.70972 10.644 8.70972 8.13097ZM11.226 7.1719H15.4687C15.1111 6.33963 14.2463 5.79345 13.3457 5.79345C12.3021 5.79345 11.5804 6.33963 11.2228 7.1719H11.226Z" fill="#31445A"/>
<path d="M7.21737 10.3092V12.5557H1.64829C0.741245 12.5557 0 11.8274 0 10.9334C0 10.527 0.152806 10.1369 0.432397 9.84101L4.06709 5.94949H0.182059V3.703H5.41302C6.32007 3.703 7.05481 4.42474 7.05481 5.31878C7.05481 5.72517 6.89551 6.11529 6.61592 6.41764L2.97148 10.3092H7.22061H7.21737Z" fill="#31445A"/>
<path d="M108.212 28.4591C108.212 24.8348 111.039 21.8018 114.741 21.8018C118.056 21.8018 121.244 24.2179 121.372 28.202C121.372 28.639 121.346 29.0245 121.295 29.3587H110.911C111.116 31.2608 112.659 32.6231 114.741 32.6231C116.154 32.6231 117.157 32.0576 117.825 31.3379L120.832 31.3636C119.727 33.5741 117.414 35.0649 114.818 35.0649C111.116 35.0649 108.212 32.109 108.212 28.4591ZM110.911 27.3024H118.673C118.211 25.5545 116.668 24.2436 114.818 24.2436C112.813 24.2436 111.373 25.5545 110.911 27.3024Z" fill="#003399"/>
<path d="M100.787 35.0649C97.111 35.0649 94.155 32.109 94.155 28.4334C94.155 24.7577 97.111 21.8018 100.787 21.8018C103.614 21.8018 106.004 23.5753 106.904 26.0429H104.205C103.485 24.9634 102.277 24.2436 100.812 24.2436C98.4475 24.2436 96.674 26.0943 96.674 28.4334C96.674 30.7724 98.4733 32.6231 100.812 32.6231C102.252 32.6231 103.434 31.9291 104.154 30.8752H106.904C105.979 33.3428 103.588 35.0649 100.787 35.0649Z" fill="#003399"/>
<path d="M92.7413 34.8593H90.2224V28.0992C90.2224 25.4774 89.0914 24.2436 87.0865 24.2436C85.0816 24.2436 83.9506 25.4774 83.9506 28.0992V34.8593H81.4317V28.0992C81.4317 23.781 83.7964 21.8018 87.0865 21.8018C90.3766 21.8018 92.7413 23.781 92.7413 28.0992V34.8593Z" fill="#003399"/>
<path d="M66.8699 28.4591C66.8699 24.8348 69.6973 21.8018 73.3986 21.8018C76.7144 21.8018 79.9017 24.2179 80.0302 28.202C80.0302 28.639 80.0045 29.0245 79.9531 29.3587H69.5688C69.7744 31.2608 71.3166 32.6231 73.3986 32.6231C74.8123 32.6231 75.8148 32.0576 76.4831 31.3379L79.4904 31.3636C78.3852 33.5741 76.0718 35.0649 73.4758 35.0649C69.7744 35.0649 66.8699 32.109 66.8699 28.4591ZM69.5688 27.3024H77.3313C76.8686 25.5545 75.3264 24.2436 73.4758 24.2436C71.4709 24.2436 70.0315 25.5545 69.5688 27.3024Z" fill="#003399"/>
<path d="M63.9471 20.2339C63.0732 20.2339 62.4049 19.5656 62.4049 18.6916C62.4049 17.8177 63.0732 17.1494 63.9471 17.1494C64.7953 17.1494 65.4636 17.8177 65.4636 18.6916C65.4636 19.5656 64.7953 20.2339 63.9471 20.2339ZM62.6876 34.8593V22.0074H65.2066V34.8593H62.6876Z" fill="#003399"/>
<path d="M55.2008 34.8593V28.1506C55.2008 23.8838 57.4884 21.956 60.5986 21.956H60.8556V24.3979H60.5986C58.7993 24.3979 57.7198 25.5545 57.7198 28.1506V34.8593H55.2008Z" fill="#003399"/>
<path d="M40.639 28.4591C40.639 24.8348 43.4664 21.8018 47.1678 21.8018C50.4836 21.8018 53.6708 24.2179 53.7993 28.202C53.7993 28.639 53.7736 29.0245 53.7222 29.3587H43.3379C43.5435 31.2608 45.0858 32.6231 47.1678 32.6231C48.5815 32.6231 49.5839 32.0576 50.2522 31.3379L53.2596 31.3636C52.1543 33.5741 49.841 35.0649 47.2449 35.0649C43.5435 35.0649 40.639 32.109 40.639 28.4591ZM43.3379 27.3024H51.1004C50.6378 25.5545 49.0956 24.2436 47.2449 24.2436C45.24 24.2436 43.8006 25.5545 43.3379 27.3024Z" fill="#003399"/>
<path d="M26.1084 28.4334C26.1084 24.7577 29.0643 21.8018 32.7142 21.8018C36.3642 21.8018 39.3458 24.7577 39.3458 28.4334C39.3458 32.109 36.3642 35.0649 32.7142 35.0649C30.9921 35.0649 29.6041 34.3452 28.653 33.2143V40H26.1084V28.4334ZM32.7142 32.6231C35.0533 32.6231 36.8268 30.7724 36.8268 28.4334C36.8268 26.0943 35.079 24.2436 32.7142 24.2436C30.3752 24.2436 28.6016 26.0943 28.6016 28.4334C28.6016 30.7724 30.4009 32.6231 32.7142 32.6231Z" fill="#003399"/>
<path d="M25.327 34.8593H22.4482L19.1324 30.2583L15.8166 34.8593H12.9121L17.693 28.1763L13.2977 22.0074H16.1508L19.1067 26.12L22.1141 22.0074H24.9672L20.5718 28.1763L25.327 34.8593Z" fill="#003399"/>
<path d="M0 28.4591C0 24.8348 2.82741 21.8018 6.52875 21.8018C9.84453 21.8018 13.0318 24.2179 13.1603 28.202C13.1603 28.639 13.1346 29.0245 13.0832 29.3587H2.69889C2.90452 31.2608 4.44675 32.6231 6.52875 32.6231C7.94246 32.6231 8.9449 32.0576 9.6132 31.3379L12.6205 31.3636C11.5153 33.5741 9.20194 35.0649 6.60586 35.0649C2.90452 35.0649 0 32.109 0 28.4591ZM2.69889 27.3024H10.4614C9.99876 25.5545 8.45653 24.2436 6.60586 24.2436C4.60097 24.2436 3.16156 25.5545 2.69889 27.3024Z" fill="#003399"/>
</svg>
